#!OML:ASF E:\acrobat2\Project_11_07_03\Capture day 1\Session 1\Acrobat.ASF
:FULLY-SPECIFIED
:DEGREES
273
root 8.49046 23.7651 10.6849 153.693 56.1482 -163.967
lowerback 18.1899 -7.01262 4.52777
upperback 14.795 -6.80144 2.819
thorax 5.77787 -2.34457 1.47954
lowerneck -0.192468 -6.98519 -2.74787
upperneck 23.2123 -7.32163 -5.37727
head 7.03327 -3.75282 -1.66821
rclavicle 5.03795e-014 -2.22639e-014
rhumerus 58.9699 -15.2678 -57.1323
rradius 29.7542
rwrist -27.5733
rhand -17.2357 -42.1767
rfingers 7.12502
rthumb 9.00788 -71.9644
lclavicle 5.03795e-014 -2.22639e-014
lhumerus 67.3688 21.4733 61.1881
lradius 16.4409
lwrist -6.12792
lhand -49.2903 -43.7805
lfingers 7.12502
lthumb -21.9078 -15.0009
rfemur -35.3551 -30.2904 -10.9951
rtibia 65.5052
rfoot -28.4636 -21.9456
rtoes -9.97526
lfemur -33.8958 26.3228 26.9573
ltibia 29.3748
lfoot -22.7351 15.7985
ltoes 39.4265
274
root 8.45992 23.758 10.8764 154.886 59.1074 -162.632
lowerback 18.6953 -6.60492 5.66464
upperback 15.1472 -6.0368 2.62853
thorax 5.79384 -1.82847 0.586849
lowerneck -0.260579 -6.86862 -3.14449
upperneck 23.4292 -7.23195 -4.81774
head 7.16057 -3.70429 -1.42957
rclavicle -4.89973e-014 -3.18055e-015
rhumerus 59.7059 -14.5244 -59.7237
rradius 27.8168
rwrist -28.6362
rhand -17.8167 -43.6877
rfingers 7.12502
rthumb 8.44726 -73.4988
lclavicle -4.89973e-014 -3.18055e-015
lhumerus 69.5217 23.2431 64.2127
lradius 15.4369
lwrist -8.14036
lhand -49.8888 -44.7417
lfingers 7.12502
lthumb -22.4823 -16.0304
rfemur -33.143 -29.7702 -9.41029
rtibia 64.936
rfoot -27.7186 -22.5144
rtoes -11.8879
lfemur -36.4009 28.1557 29.6376
ltibia 26.6434
lfoot -24.2064 17.0529
ltoes 37.2814
275
root 8.44491 23.7378 11.0597 153.639 61.6232 -163.619
lowerback 19.5869 -5.97012 5.24243
upperback 15.6332 -5.13414 2.25498
thorax 5.92135 -1.35312 0.336848
lowerneck -0.363539 -6.73521 -3.59589
upperneck 23.3238 -7.11672 -4.40271
head 7.18352 -3.66445 -1.21948
rclavicle -5.90515e-014 -2.06736e-014
rhumerus 60.7736 -13.8895 -62.4439
rradius 25.8752
rwrist -29.3167
rhand -18.5507 -45.4457
rfingers 7.12502
rthumb 7.73884 -75.2841
lclavicle -5.90515e-014 -2.06736e-014
lhumerus 72.5715 25.1935 68.8854
lradius 14.2668
lwrist -11.3305
lhand -50.4442 -45.4744
lfingers 7.12502
lthumb -23.0154 -16.8286
rfemur -30.4689 -29.2353 -9.64009
rtibia 64.5147
rfoot -27.3251 -22.3494
rtoes -11.3342
lfemur -37.8743 28.7806 31.5817
ltibia 23.1816
lfoot -27.6399 17.5036
ltoes 35.7061
276
root 8.432 23.6933 11.2171 151.299 63.5802 -165.831
lowerback 20.3218 -5.39179 4.34884
upperback 16.0625 -4.40691 1.77266
thorax 6.08856 -1.00853 0.235964
lowerneck -0.303264 -6.6368 -4.09092
upperneck 23.0159 -7.04105 -4.10742
head 7.10756 -3.65463 -1.03259
rclavicle 4.8578e-014 -6.36111e-015
rhumerus 62.0044 -13.3518 -65.3926
rradius 23.9804
rwrist -29.662
rhand -18.927 -47.4297
rfingers 7.12502
rthumb 7.37557 -77.2811
lclavicle 4.8578e-014 -6.36111e-015
lhumerus 75.1094 26.9582 72.5626
lradius 13.4984
lwrist -13.2187
lhand -50.839 -45.8411
lfingers 7.12502
lthumb -23.3941 -17.243
rfemur -27.6588 -29.085 -10.9682
rtibia 64.1315
rfoot -27.3807 -21.763
rtoes -8.32989
lfemur -39.0942 27.8801 33.6117
ltibia 18.9052
lfoot -34.1657 12.5443
ltoes 47.9923
277
root 8.41679 23.6452 11.3809 148.744 65.6813 -168.303
lowerback 21.0453 -4.75916 3.46452
upperback 16.4762 -3.61662 1.29893
thorax 6.24748 -0.632238 0.123418
lowerneck -0.114784 -6.46562 -4.46594
upperneck 22.5267 -6.88672 -3.8459
head 6.94162 -3.59807 -0.862895
rclavicle 5.2007e-014 1.98785e-014
rhumerus 63.3132 -12.896 -68.4267
rradius 22.2821
rwrist -29.8609
rhand -18.9395 -49.5288
rfingers 7.12502
rthumb 7.36357 -79.3806
lclavicle 5.2007e-014 1.98785e-014
lhumerus 77.0144 28.5779 74.603
lradius 12.9661
lwrist -13.6839
lhand -51.4188 -46.4004
lfingers 7.12502
lthumb -23.9502 -17.8742
rfemur -25.0903 -28.7256 -11.9845
rtibia 63.6815
rfoot -26.9486 -21.6479
rtoes -7.36771
lfemur -40.9778 28.4174 34.6165
ltibia 15.8873
lfoot -34.8862 17.994
ltoes 40.7025
278
root 8.40103 23.585 11.5419 145.903 68.03 -170.928
lowerback 21.9498 -4.043 2.74491
upperback 16.9025 -2.67431 0.920697
thorax 6.33625 -0.160939 -0.00240563
lowerneck 0.232612 -6.2514 -4.65649
upperneck 21.7079 -6.68778 -3.74724
head 6.62587 -3.51473 -0.76111
rclavicle 1.96051e-014 1.39149e-014
rhumerus 64.491 -12.3617 -70.7887
rradius 20.9914
rwrist -29.9744
rhand -18.9814 -51.4345
rfingers 7.12502
rthumb 7.32315 -81.2878
lclavicle 1.96051e-014 1.39149e-014
lhumerus 76.8697 29.8093 73.845
lradius 13.9224
lwrist -11.7253
lhand -51.9084 -46.2382
lfingers 7.12502
lthumb -24.4197 -17.7745
rfemur -22.6864 -28.1066 -12.606
rtibia 63.2213
rfoot -26.4664 -21.732
rtoes -6.22551
lfemur -41.82 27.434 37.4384
ltibia 12.1716
lfoot -39.1388 19.881
ltoes 38.3377
279
root 8.38665 23.5067 11.6866 143.217 70.6516 -173.217
lowerback 22.9405 -3.39291 2.53087
upperback 17.3568 -1.729 0.685066
thorax 6.41229 0.360819 -0.267132
lowerneck -0.675561 -6.32046 -4.98905
upperneck 21.8306 -6.75468 -3.66527
head 6.8417 -3.59096 -0.720882
rclavicle -1.32689e-014 -2.3059e-014
rhumerus 65.8945 -11.8877 -73.2266
rradius 19.7822
rwrist -29.7905
rhand -18.6897 -52.7917
rfingers 7.12502
rthumb 7.60464 -82.6349
lclavicle -1.32689e-014 -2.3059e-014
lhumerus 76.5896 31.1382 73.0757
lradius 15.0187
lwrist -9.85464
lhand -52.1656 -46.0009
lfingers 7.12502
lthumb -24.6663 -17.5706
rfemur -20.2743 -27.2678 -12.7253
rtibia 62.5818
rfoot -26.0899 -21.8998
rtoes -3.72636
lfemur -42.028 25.1308 42.1494
ltibia 8.33937
lfoot -43.1192 20.1797
ltoes 41.4042
280
root 8.3759 23.4153 11.8263 139.762 73.2955 -176.258
lowerback 23.914 -2.83117 2.32346
upperback 17.8276 -0.906002 0.411288
thorax 6.52969 0.825993 -0.571765
lowerneck -1.33737 -6.16739 -5.92091
upperneck 21.6519 -6.59972 -3.02439
head 6.96211 -3.56056 -0.378042
rclavicle -5.44173e-015 -2.8625e-014
rhumerus 67.6617 -11.2989 -76.3756
rradius 18.59
rwrist -29.3643
rhand -17.9329 -53.9363
rfingers 7.12502
rthumb 8.33505 -83.7519
lclavicle -5.44173e-015 -2.8625e-014
lhumerus 76.1794 32.901 71.9712
lradius 15.8925
lwrist -8.20095
lhand -52.3894 -45.6584
lfingers 7.12502
lthumb -24.8807 -17.2576
rfemur -17.9484 -26.3265 -12.7478
rtibia 61.828
rfoot -25.2584 -22.5796
rtoes -2.4788
lfemur -41.7106 21.2065 48.4943
ltibia 4.45613
lfoot -53.9393 16.9702
ltoes 47.8029
281
root 8.36901 23.3102 11.9691 134.137 75.9201 -181.428
lowerback 24.969 -2.18297 1.67401
upperback 18.2999 -0.0589496 0.177899
thorax 6.63206 1.25709 -0.603122
lowerneck -1.90321 -5.98734 -7.09232
upperneck 21.3172 -6.38495 -2.39017
head 7.02135 -3.51507 0.0124051
rclavicle -3.47376e-014 -7.15625e-014
rhumerus 69.2471 -10.2048 -78.6739
rradius 17.931
rwrist -30.0193
rhand -17.2661 -54.8416
rfingers 7.12502
rthumb 8.97855 -84.6305
lclavicle -3.47376e-014 -7.15625e-014
lhumerus 75.8486 35.1036 71.2471
lradius 16.4668
lwrist -7.14713
lhand -52.6508 -45.0288
lfingers 7.12502
lthumb -25.1312 -16.6629
rfemur -15.814 -25.1661 -12.8156
rtibia 61.088
rfoot -24.5396 -23.4321
rtoes -0.330917
lfemur -42.4086 19.5535 52.7811
ltibia 2.26288
lfoot -56.7065 25.2065
ltoes 39.8264
282
root 8.3646 23.1929 12.1006 123.854 78.0805 -191.256
lowerback 25.9836 -1.28999 0.494724
upperback 18.7285 0.981134 -0.163906
thorax 6.71207 1.7373 -0.508531
lowerneck -2.25639 -5.98947 -8.22169
upperneck 20.9051 -6.4541 -1.63535
head 7.02464 -3.58721 0.422111
rclavicle 1.78906e-015 -1.11319e-014
rhumerus 70.2812 -8.9314 -79.6402
rradius 18.0684
rwrist -32.3847
rhand -17.3281 -55.6313
rfingers 7.12502
rthumb 8.91874 -85.4228
lclavicle 1.78906e-015 -1.11319e-014
lhumerus 75.383 37.2094 70.5406
lradius 16.9133
lwrist -6.24623
lhand -52.8074 -44.4319
lfingers 7.12502
lthumb -25.2812 -16.0871
rfemur -13.9025 -23.9713 -13.5335
rtibia 60.4391
rfoot -23.648 -24.156
rtoes 4.42274
lfemur -45.1441 24.0968 50.2846
ltibia 2.56843
lfoot -53.812 24.4207
ltoes 38.2614
283
root 8.36713 23.0733 12.2157 108.413 79.4812 -206.177
lowerback 26.8705 -0.382421 -0.865214
upperback 19.168 1.98299 -0.712331
thorax 6.87092 2.1955 -0.546302
lowerneck -2.71601 -6.0031 -8.45208
upperneck 20.4176 -6.41819 -1.87866
head 6.94799 -3.61392 0.374031
rclavicle 5.81445e-015 7.95139e-015
rhumerus 71.023 -7.24177 -79.3831
rradius 18.9401
rwrist -36.4232
rhand -18.2809 -56.8538
rfingers 7.12502
rthumb 7.99922 -86.6824
lclavicle 5.81445e-015 7.95139e-015
lhumerus 74.6348 39.539 69.4082
lradius 17.1686
lwrist -5.40822
lhand -52.9049 -44.0675
lfingers 7.12502
lthumb -25.3746 -15.7359
rfemur -12.0109 -22.8159 -14.7268
rtibia 59.6392
rfoot -21.9174 -25.119
rtoes 7.75036
lfemur -48.3672 28.2965 47.1753
ltibia 3.36292
lfoot -53.655 16.2838
ltoes 46.8746
284
root 8.3831 22.9576 12.306 89.0783 80.5519 -224.887
lowerback 27.5479 0.377508 -1.34217
upperback 19.6055 2.94887 -1.28999
thorax 7.15436 2.72942 -1.11299
lowerneck -2.8262 -6.05271 -8.643
upperneck 19.744 -6.48179 -2.07318
head 6.75316 -3.67345 0.342071
rclavicle 2.45499e-014 3.29983e-014
rhumerus 71.5152 -5.48787 -78.0735
rradius 20.4317
rwrist -41.1882
rhand -19.6497 -57.8334
rfingers 7.12502
rthumb 6.67795 -87.7081
lclavicle 2.45499e-014 3.29983e-014
lhumerus 73.8386 41.8833 68.3666
lradius 17.2983
lwrist -4.94077
lhand -53.0765 -43.432
lfingers 7.12502
lthumb -25.539 -15.1238
rfemur -10.1177 -21.4804 -15.3306
rtibia 58.6555
rfoot -19.9644 -26.2057
rtoes 10.4593
lfemur -52.3699 32.2326 44.1919
ltibia 4.78505
lfoot -50.7614 19.7797
ltoes 43.7575
285
root 8.40395 22.8336 12.3907 66.1736 80.5946 -247.073
lowerback 28.2921 1.19614 -1.44503
upperback 19.9596 4.05165 -1.88378
thorax 7.35644 3.37927 -1.95572
lowerneck -2.59453 -6.05216 -8.8726
upperneck 19.0148 -6.57453 -1.88918
head 6.49562 -3.71544 0.447017
rclavicle -5.36719e-015 4.57205e-014
rhumerus 71.7285 -4.0168 -76.2806
rradius 22.4579
rwrist -45.5162
rhand -20.8567 -58.3397
rfingers 7.12502
rthumb 5.51271 -88.248
lclavicle -5.36719e-015 4.57205e-014
lhumerus 72.1541 43.8511 66.3289
lradius 17.5762
lwrist -3.64523
lhand -53.3969 -41.9475
lfingers 7.12502
lthumb -25.8459 -13.6837
rfemur -8.32779 -19.9238 -15.5963
rtibia 57.6677
rfoot -18.108 -26.9101
rtoes 13.8041
lfemur -56.6597 35.6718 41.1094
ltibia 6.81599
lfoot -48.973 16.7554
ltoes 45.192
286
root 8.4342 22.6953 12.4714 40.5114 79.9538 -272.052
lowerback 29.1728 1.88056 -0.541713
upperback 20.3644 5.15264 -2.3068
thorax 7.12275 4.08197 -3.02389
lowerneck -2.48354 -5.96335 -8.97102
upperneck 18.6432 -6.46864 -1.98048
head 6.35469 -3.67401 0.449683
rclavicle -1.20762e-014 -1.74931e-014
rhumerus 71.911 -2.38711 -74.1822
rradius 24.709
rwrist -48.8888
rhand -21.6506 -58.3703
rfingers 7.12502
rthumb 4.7462 -88.2972
lclavicle -1.20762e-014 -1.74931e-014
lhumerus 68.7753 45.8197 62.6659
lradius 18.0133
lwrist -1.22034
lhand -53.7051 -39.7583
lfingers 7.12502
lthumb -26.141 -11.5378
rfemur -6.39515 -17.1628 -14.0193
rtibia 55.4922
rfoot -16.6219 -28.052
rtoes 16.8561
lfemur -61.6897 38.9667 38.924
ltibia 9.38116
lfoot -44.1183 23.5933
ltoes 34.0815
287
root 8.46827 22.5479 12.5393 12.8669 78.1241 -299.284
lowerback 29.8628 2.33218 2.18233
upperback 20.4529 6.29976 -2.26499
thorax 7.23861 4.96412 -4.68585
lowerneck -2.52266 -6.02092 -8.5675
upperneck 18.4819 -6.49077 -2.57861
head 6.27483 -3.69884 0.197029
rclavicle -9.96408e-015 1.39149e-014
rhumerus 72.1311 -1.0331 -71.1899
rradius 27.0878
rwrist -51.4767
rhand -22.0905 -57.5775
rfingers 7.12502
rthumb 4.32139 -87.5134
lclavicle -9.96408e-015 1.39149e-014
lhumerus 64.6101 47.5047 58.5719
lradius 18.3514
lwrist 1.21041
lhand -54.1015 -39.0283
lfingers 7.12502
lthumb -26.5205 -10.8646
rfemur -5.09934 -14.5246 -10.2107
rtibia 53.9592
rfoot -15.5415 -28.9891
rtoes 18.117
lfemur -66.5843 41.8075 38.2068
ltibia 12.4726
lfoot -42.8647 19.8988
ltoes 38.8317
